<?xml version="1.0" encoding="utf-8"?>
<!-- Generator: Adobe Illustrator 17.1.0, SVG Export Plug-In . SVG Version: 6.00 Build 0)  -->
<!DOCTYPE svg PUBLIC "-//W3C//DTD SVG 1.1//EN" "http://www.w3.org/Graphics/SVG/1.1/DTD/svg11.dtd">
<svg version="1.1" id="Layer_1" xmlns="http://www.w3.org/2000/svg" xmlns:xlink="http://www.w3.org/1999/xlink" x="0px" y="0px"
	 viewBox="0 0 512 512" enable-background="new 0 0 512 512" xml:space="preserve">
<g>
	<g>
		<path fill="#F5F5F5" d="M273,231.8c-28.3,0-48.5,18.9-48.5,49.6c0,30.3,20.5,48.3,47,48.3c23.9,0,48-15.4,48-49.9
			C319.7,251.4,301,231.8,273,231.8z M272.3,312.6c-14.3,0-23.3-13.7-23.3-31.8c0-15.7,6.7-31.9,23.4-31.9
			c16.1,0,22.7,16.9,22.7,31.6C295.2,299.5,285.8,312.6,272.3,312.6z"/>
		<path fill="#F5F5F5" d="M475.1,251.6v-17.8h-22.5V220c0.6-28.4,6.2-37.1,6.2-37.1c-16.1,16.3-19.2,31.5-19.2,31.5
			c-7.4-19.5-35.6-22.8-35.6-22.8c28.3,12.2,25.2,40.1,25.2,40.1v2.1h-13.2v17.6h13.2v44.1c0,12.3,2.3,21,7.4,26.3
			c4.4,4.9,11.6,7.8,20.4,7.8c7.3,0,13.7-1.2,17.2-2.4l-0.5-17.9c-2.7,0.8-5,0.9-9.3,0.9c-9,0-12.2-5.8-12.2-17.3v-41.2H475.1z"/>
		<path fill="#F5F5F5" d="M227.9,232.3c-2-0.5-3.3-0.6-5.6-0.6c-10.2,0-21.1,6.7-25.8,19.8h-0.2v-17.6h-1.5h-19.6v1.8v28.3v8.2v55.2
			h23.7v-48.6c0-2.4,0.2-5,0.6-7.1c2.1-10.8,10-17.9,21.1-17.9c2.9,0,5,0.2,7.1,0.6v-21.9H227.9z"/>
		<path fill="#F5F5F5" d="M128,231.8c-14.3,0-25.2,5.9-32.1,16.6h-0.2V234h-1.4H74.3v3.3v27.8v13.7v87h23.7v-48.5h0.5
			c4.9,7.4,14.6,12.5,26.3,12.5c21.3,0,42.7-16.4,42.7-50.2C167.5,250.2,149.6,231.8,128,231.8z M119.6,311.3
			c-10.2,0-18.4-7-21-16.6c-0.5-2.1-0.6-4.3-0.6-6.5v-14.4c0-2,0.5-4.1,0.8-5.9c2.4-10.3,11.6-17.5,21.3-17.5
			c15.2,0,23.3,13.5,23.3,29.9C143.5,298.9,134.5,311.3,119.6,311.3z"/>
		<path fill="#F5F5F5" d="M387.8,290.5c0,2.7-0.5,5.3-1.4,7.3c-2.3,6.1-8.5,12.8-18.1,12.8c-12.5,0-17.5-10-17.5-25.5v-51.2h-23.7
			v55c0,30.6,15.5,40.7,32.5,40.7c16.9,0,26.1-9.6,30.3-16.1h0.2v14h1.7h19.8v-1.8v-26.3v-7.6V234h-23.7V290.5z"/>
		<path fill="#F5F5F5" d="M41.5,271.5c-11.9-4.4-16.4-7.1-16.4-13.1c0-5.8,4.6-10,13.1-10c4.3,0,8.4,0.8,11.9,2l12.8-12.8l0.2-0.3
			c-5.6-3-14.6-5.6-25.1-5.6c-21.7,0-35.4,12.8-35.4,29.2c0,11.1,7.4,21.1,25.8,27.4c11.6,4.3,15.4,7.3,15.4,13.7
			c0,6.2-4.6,10.6-15,10.6c-4.9,0-10.5-1.2-15.2-2.9L0,323c7,3.8,17,6.5,28.4,6.5c24.8,0,38.2-12.3,38.2-29.5
			C66.3,286.3,58.5,277.6,41.5,271.5z"/>
	</g>
	<path fill="#F5F5F5" d="M426.4,194.6c0,0-26.8-61.1-132.6-11.2c0,0,54.4,53.1,124.8,26c0,0-13.2-21.3-69.2-25.2
		C349.5,183.9,389.8,172.2,426.4,194.6z"/>
	<path fill="#F5F5F5" d="M447.7,190.2c0,0-6.1-41.7,64.3-47.4c0,0-1.1,43.2-52.8,57c0,0-1.1-23.9,25.2-37.4
		C484.3,162.2,459.7,167.2,447.7,190.2z"/>
	<path fill="#F5F5F5" d="M446.8,169c0,8.5-6.8,15.4-15.4,15.4c-8.5,0-15.4-6.8-15.4-15.4s6.8-15.4,15.4-15.4
		C439.9,153.7,446.8,160.5,446.8,169z"/>
</g>
</svg>
