<?xml version="1.0" encoding="utf-8"?>
<!-- Generator: Adobe Illustrator 17.1.0, SVG Export Plug-In . SVG Version: 6.00 Build 0)  -->
<!DOCTYPE svg PUBLIC "-//W3C//DTD SVG 1.1//EN" "http://www.w3.org/Graphics/SVG/1.1/DTD/svg11.dtd">
<svg version="1.1" id="Layer_1" xmlns="http://www.w3.org/2000/svg" xmlns:xlink="http://www.w3.org/1999/xlink" x="0px" y="0px"
	 viewBox="0 0 336.8 149" enable-background="new 0 0 336.8 149" xml:space="preserve">
<g>
	<g>
		<path fill="#F5F5F5" d="M105.4,138.9c-0.6,2.5-1.2,4.7-1.6,6.8h-0.1c-0.3-2.1-0.8-4.4-1.4-6.8l-2.4-10h-2.7l-2.6,10
			c-0.7,2.6-1.3,4.9-1.6,6.9H93c-0.4-1.9-0.9-4.4-1.5-6.8l-2.4-10h-2.7l5,19.8h2.7l2.8-10.3c0.7-2.6,1.2-4.5,1.5-6.5h0.1
			c0.3,2,0.7,3.9,1.3,6.5l2.5,10.3h2.7l5.6-19.8H108L105.4,138.9z"/>
		<path fill="#F5F5F5" d="M117.7,134.2c-4.1,0-6.7,3.3-6.7,7.6c0,4.3,2.6,7.2,7,7.2c2.3,0,3.8-0.5,4.8-0.9l-0.5-1.8
			c-0.9,0.4-2.1,0.7-3.9,0.7c-2.6,0-4.8-1.4-4.9-4.9h10c0.1-0.3,0.1-0.7,0.1-1.2C123.5,138.3,122.3,134.2,117.7,134.2z M113.5,140.2
			c0.2-1.8,1.3-4.2,4-4.2c2.9,0,3.6,2.6,3.6,4.2H113.5z"/>
		<rect x="126.7" y="127.9" fill="#F5F5F5" width="2.6" height="20.9"/>
		<rect x="133.7" y="127.9" fill="#F5F5F5" width="2.6" height="20.9"/>
		<path fill="#F5F5F5" d="M147.7,134.2c-2.4,0-4,1.3-4.7,2.6h-0.1l-0.1-2.4h-2.3c0.1,1.2,0.1,2.4,0.1,3.9v10.4h2.6v-8.5
			c0-0.4,0.1-0.9,0.2-1.2c0.5-1.4,1.8-2.6,3.5-2.6c2.4,0,3.3,1.9,3.3,4.2v8.2h2.6v-8.5C152.7,135.4,149.7,134.2,147.7,134.2z"/>
		<path fill="#F5F5F5" d="M162.6,134.2c-4.1,0-6.7,3.3-6.7,7.6c0,4.3,2.6,7.2,7,7.2c2.3,0,3.8-0.5,4.8-0.9l-0.5-1.8
			c-0.9,0.4-2.1,0.7-3.9,0.7c-2.6,0-4.8-1.4-4.9-4.9h10c0.1-0.3,0.1-0.7,0.1-1.2C168.4,138.3,167.2,134.2,162.6,134.2z M158.4,140.2
			c0.2-1.8,1.3-4.2,4-4.2c2.9,0,3.6,2.6,3.6,4.2H158.4z"/>
		<path fill="#F5F5F5" d="M176.2,140.5c-1.9-0.7-2.7-1.3-2.7-2.4c0-1.1,0.8-1.9,2.3-1.9c1.3,0,2.3,0.5,2.9,0.9l0.6-1.9
			c-0.8-0.5-2-0.9-3.5-0.9c-3,0-4.9,1.9-4.9,4.2c0,1.7,1.2,3.1,3.8,4c1.9,0.7,2.6,1.4,2.6,2.6c0,1.2-0.9,2.1-2.7,2.1
			c-1.3,0-2.6-0.5-3.4-1l-0.6,1.9c1,0.6,2.4,1,4,1c3.3,0,5.3-1.8,5.3-4.3C179.9,142.6,178.6,141.4,176.2,140.5z"/>
		<path fill="#F5F5F5" d="M187.8,140.5c-1.8-0.7-2.7-1.3-2.7-2.4c0-1.1,0.8-1.9,2.3-1.9c1.3,0,2.4,0.5,2.9,0.9l0.6-1.9
			c-0.8-0.5-2-0.9-3.5-0.9c-3,0-4.9,1.9-4.9,4.2c0,1.7,1.2,3.1,3.8,4c1.9,0.7,2.6,1.4,2.6,2.6c0,1.2-0.9,2.1-2.7,2.1
			c-1.3,0-2.6-0.5-3.4-1l-0.6,1.9c1,0.6,2.4,1,4,1c3.3,0,5.3-1.8,5.3-4.3C191.6,142.6,190.3,141.4,187.8,140.5z"/>
		<path fill="#F5F5F5" d="M207.1,137.5c-2.7-1.1-3.9-2-3.9-3.8c0-1.4,1-3,3.7-3c1.8,0,3.1,0.6,3.7,0.9l0.7-2.1c-0.8-0.5-2.3-1-4.3-1
			c-3.8,0-6.4,2.3-6.4,5.4c0,2.8,2,4.5,5.2,5.6c2.7,1,3.7,2.1,3.7,3.9c0,2-1.5,3.4-4.1,3.4c-1.8,0-3.4-0.6-4.6-1.3l-0.7,2.1
			c1.1,0.7,3.1,1.3,5.1,1.3c4.7,0,6.9-2.7,6.9-5.7C212.2,140.4,210.5,138.8,207.1,137.5z"/>
		<path fill="#F5F5F5" d="M221.8,134.2c-3.9,0-7,2.8-7,7.5c0,4.5,3,7.3,6.8,7.3c3.4,0,7.1-2.3,7.1-7.5
			C228.6,137.2,225.9,134.2,221.8,134.2z M221.7,147.1c-2.5,0-4.3-2.3-4.3-5.5c0-2.7,1.3-5.5,4.3-5.5c3.1,0,4.3,3,4.3,5.4
			C226,144.8,224.1,147.1,221.7,147.1z"/>
		<rect x="231.9" y="127.9" fill="#F5F5F5" width="2.6" height="20.9"/>
		<path fill="#F5F5F5" d="M250.7,134.5h-2.6v8.7c0,0.5-0.1,1-0.2,1.3c-0.5,1.2-1.7,2.4-3.4,2.4c-2.3,0-3.2-1.8-3.2-4.6v-7.8h-2.6
			v8.3c0,5,2.7,6.2,4.9,6.2c2.5,0,4.1-1.5,4.7-2.6h0.1l0.1,2.3h2.3c-0.1-1.1-0.1-2.4-0.1-3.9V134.5z"/>
		<path fill="#F5F5F5" d="M258.1,131.1l-2.5,0.8v2.6h-2.2v2h2.2v7.8c0,1.7,0.3,2.9,1,3.7c0.6,0.7,1.6,1.1,2.8,1.1
			c1,0,1.8-0.2,2.3-0.4l-0.1-2c-0.4,0.1-0.8,0.2-1.5,0.2c-1.4,0-1.9-1-1.9-2.8v-7.7h3.7v-2h-3.7V131.1z"/>
		<rect x="264.7" y="134.5" fill="#F5F5F5" width="2.6" height="14.2"/>
		<path fill="#F5F5F5" d="M266,128.9c-1,0-1.6,0.7-1.6,1.6c0,0.9,0.6,1.6,1.6,1.6c1,0,1.6-0.7,1.6-1.6
			C267.6,129.6,267,128.9,266,128.9z"/>
		<path fill="#F5F5F5" d="M277.6,134.2c-3.9,0-7,2.8-7,7.5c0,4.5,3,7.3,6.8,7.3c3.4,0,7.1-2.3,7.1-7.5
			C284.5,137.2,281.7,134.2,277.6,134.2z M277.5,147.1c-2.5,0-4.3-2.3-4.3-5.5c0-2.7,1.3-5.5,4.3-5.5c3.1,0,4.3,3,4.3,5.4
			C281.8,144.8,280,147.1,277.5,147.1z"/>
		<path fill="#F5F5F5" d="M294.8,134.2c-2.3,0-4,1.3-4.7,2.6h-0.1l-0.1-2.4h-2.3c0.1,1.2,0.1,2.4,0.1,3.9v10.4h2.6v-8.5
			c0-0.4,0.1-0.9,0.2-1.2c0.5-1.4,1.8-2.6,3.5-2.6c2.4,0,3.3,1.9,3.3,4.2v8.2h2.6v-8.5C299.8,135.4,296.8,134.2,294.8,134.2z"/>
		<path fill="#F5F5F5" d="M308.6,140.5c-1.9-0.7-2.7-1.3-2.7-2.4c0-1.1,0.8-1.9,2.4-1.9c1.3,0,2.3,0.5,2.9,0.9l0.6-1.9
			c-0.8-0.5-2-0.9-3.5-0.9c-3,0-4.9,1.9-4.9,4.2c0,1.7,1.2,3.1,3.8,4c1.9,0.7,2.6,1.4,2.6,2.6c0,1.2-0.9,2.1-2.7,2.1
			c-1.3,0-2.6-0.5-3.4-1l-0.6,1.9c1,0.6,2.4,1,4,1c3.3,0,5.3-1.8,5.3-4.3C312.3,142.6,311.1,141.4,308.6,140.5z"/>
	</g>
	<g>
		<path fill="#F5F5F5" d="M179.6,58.6c-18.6,0-31.9,12.4-31.9,32.6c0,19.9,13.5,31.8,30.9,31.8c15.7,0,31.6-10.1,31.6-32.8
			C210.3,71.5,198,58.6,179.6,58.6z M179.1,111.7c-9.4,0-15.3-9-15.3-20.9c0-10.3,4.4-21,15.4-21c10.6,0,14.9,11.1,14.9,20.8
			C194.2,103.1,188,111.7,179.1,111.7z"/>
		<path fill="#F5F5F5" d="M312.5,71.6V59.9h-14.8v-9.1c0.4-18.7,4.1-24.4,4.1-24.4c-10.6,10.7-12.6,20.7-12.6,20.7
			c-4.9-12.8-23.4-15-23.4-15c18.6,8,16.6,26.4,16.6,26.4v1.4h-8.7v11.6h8.7v29c0,8.1,1.5,13.8,4.9,17.3c2.9,3.2,7.6,5.1,13.4,5.1
			c4.8,0,9-0.8,11.3-1.6l-0.3-11.8c-1.8,0.5-3.3,0.6-6.1,0.6c-5.9,0-8-3.8-8-11.4V71.6H312.5z"/>
		<path fill="#F5F5F5" d="M149.9,58.9c-1.3-0.3-2.2-0.4-3.7-0.4c-6.7,0-13.9,4.4-17,13h-0.1V59.9h-1h-12.9v1.2v18.6v5.4v36.3h15.6
			v-32c0-1.6,0.1-3.3,0.4-4.7c1.4-7.1,6.6-11.8,13.9-11.8c1.9,0,3.3,0.1,4.7,0.4V58.9z"/>
		<path fill="#F5F5F5" d="M84.2,58.6c-9.4,0-16.6,3.9-21.1,10.9H63v-9.5h-0.9H48.9v2.2v18.3v9v57.2h15.6v-31.9h0.3
			c3.2,4.9,9.6,8.2,17.3,8.2c14,0,28.1-10.8,28.1-33C110.2,70.7,98.4,58.6,84.2,58.6z M78.7,110.9c-6.7,0-12.1-4.6-13.8-10.9
			c-0.3-1.4-0.4-2.8-0.4-4.3v-9.5c0-1.3,0.3-2.7,0.5-3.9c1.6-6.8,7.6-11.5,14-11.5c10,0,15.3,8.9,15.3,19.7
			C94.4,102.7,88.5,110.9,78.7,110.9z"/>
		<path fill="#F5F5F5" d="M255.1,97.2c0,1.8-0.3,3.5-0.9,4.8c-1.5,4-5.6,8.4-11.9,8.4c-8.2,0-11.5-6.6-11.5-16.8V59.9h-15.6v36.2
			c0,20.1,10.2,26.8,21.4,26.8c11.1,0,17.2-6.3,19.9-10.6h0.1v9.2h1.1h13v-1.2v-17.3V98v-38h-15.6V97.2z"/>
		<path fill="#F5F5F5" d="M27.3,84.7c-7.8-2.9-10.8-4.7-10.8-8.6c0-3.8,3-6.6,8.6-6.6c2.8,0,5.5,0.5,7.8,1.3l8.4-8.4l0.1-0.2
			c-3.7-2-9.6-3.7-16.5-3.7c-14.3,0-23.3,8.4-23.3,19.2c0,7.3,4.9,13.9,17,18c7.6,2.8,10.1,4.8,10.1,9c0,4.1-3,7-9.9,7
			c-3.2,0-6.9-0.8-10-1.9L0,118.6c4.6,2.5,11.2,4.3,18.7,4.3c16.3,0,25.1-8.1,25.1-19.4C43.6,94.4,38.5,88.7,27.3,84.7z"/>
	</g>
	<path fill="#F5F5F5" d="M280.5,34.1c0,0-17.6-40.2-87.2-7.4c0,0,35.8,34.9,82.1,17.1c0,0-8.7-14-45.5-16.6
		C229.9,27.1,256.4,19.4,280.5,34.1z"/>
	<path fill="#F5F5F5" d="M294.5,31.2c0,0-4-27.4,42.3-31.2c0,0-0.7,28.4-34.7,37.5c0,0-0.7-15.7,16.6-24.6
		C318.6,12.8,302.4,16.1,294.5,31.2z"/>
	<path fill="#F5F5F5" d="M293.9,17.3c0,5.6-4.5,10.1-10.1,10.1c-5.6,0-10.1-4.5-10.1-10.1c0-5.6,4.5-10.1,10.1-10.1
		C289.4,7.2,293.9,11.7,293.9,17.3z"/>
</g>
</svg>
