<?xml version="1.0" encoding="utf-8"?>
<!-- Generator: Adobe Illustrator 17.1.0, SVG Export Plug-In . SVG Version: 6.00 Build 0)  -->
<!DOCTYPE svg PUBLIC "-//W3C//DTD SVG 1.1//EN" "http://www.w3.org/Graphics/SVG/1.1/DTD/svg11.dtd">
<svg version="1.1" id="Layer_1" xmlns="http://www.w3.org/2000/svg" xmlns:xlink="http://www.w3.org/1999/xlink" x="0px" y="0px"
	 viewBox="0 7 40 23.5" enable-background="new 0 7 40 23.5" xml:space="preserve">
<g>
	<g>
		<rect x="9" y="15.6" width="4.5" height="10.6"/>
		<path d="M13.6,26.3H9V15.5h4.6V26.3z M9.1,26.1h4.4V15.6H9.1V26.1z"/>
	</g>
	<g>
		<rect x="14.8" y="12" width="4.5" height="14.2"/>
		<path fill="#FFFFFF" d="M19.4,26.3h-4.6V11.9h4.6V26.3z M14.9,26.1h4.4V12.1h-4.4V26.1z"/>
	</g>
	<g>
		<rect x="20.6" y="19.1" width="4.5" height="7.1"/>
		<path d="M25.1,26.3h-4.6V19h4.6V26.3z M20.6,26.1H25v-7h-4.4V26.1z"/>
	</g>
	<g>
		<rect x="26.4" y="14.8" width="4.5" height="11.4"/>
		<path d="M30.9,26.3h-4.6V14.8h4.6L30.9,26.3L30.9,26.3z M26.4,26.1h4.4V14.9h-4.4V26.1z"/>
	</g>
	<g>
		<line fill="none" x1="9" y1="28.2" x2="30.9" y2="28.2"/>
		<rect x="9" y="27.8" width="21.9" height="0.9"/>
	</g>
</g>
</svg>
