<?xml version="1.0" encoding="utf-8"?>
<!-- Generator: Adobe Illustrator 17.1.0, SVG Export Plug-In . SVG Version: 6.00 Build 0)  -->
<!DOCTYPE svg PUBLIC "-//W3C//DTD SVG 1.1//EN" "http://www.w3.org/Graphics/SVG/1.1/DTD/svg11.dtd">
<svg version="1.1" id="Layer_1" xmlns="http://www.w3.org/2000/svg" xmlns:xlink="http://www.w3.org/1999/xlink" x="0px" y="0px"
	 viewBox="288.3 407.1 33.3 31" enable-background="new 288.3 407.1 33.3 31" xml:space="preserve">
<g>
	<g>
		<g>
			<path d="M296.5,432h-6.3c-0.3,0-0.5-0.2-0.5-0.5v-14.8c0-0.3,0.2-0.5,0.5-0.5h6.3c0.3,0,0.5,0.2,0.5,0.5v14.8
				C297,431.7,296.8,432,296.5,432z M290.7,431h5.3v-13.8h-5.3V431z"/>
		</g>
	</g>
	<g>
		<g>
			<path d="M304.5,432h-6.3c-0.3,0-0.5-0.2-0.5-0.5v-19.7c0-0.3,0.2-0.5,0.5-0.5h6.3c0.3,0,0.5,0.2,0.5,0.5v19.7
				C305,431.7,304.8,432,304.5,432z M298.7,431h5.3v-18.7h-5.3V431z"/>
		</g>
	</g>
	<g>
		<g>
			<path d="M312.3,432H306c-0.3,0-0.5-0.2-0.5-0.5v-10c0-0.3,0.2-0.5,0.5-0.5h6.3c0.3,0,0.5,0.2,0.5,0.5v10
				C312.8,431.7,312.6,432,312.3,432z M306.5,431h5.3v-9h-5.3V431z"/>
		</g>
	</g>
	<g>
		<g>
			<path d="M320.2,432h-6.3c-0.3,0-0.5-0.2-0.5-0.5v-15.8c0-0.3,0.2-0.5,0.5-0.5h6.3c0.3,0,0.5,0.2,0.5,0.5v15.8
				C320.7,431.7,320.5,432,320.2,432z M314.4,431h5.3v-14.8h-5.3V431z"/>
		</g>
	</g>
	<g>
		<g>
			<path d="M320.2,434.6h-30c-0.3,0-0.5-0.2-0.5-0.5s0.2-0.5,0.5-0.5h30c0.3,0,0.5,0.2,0.5,0.5S320.5,434.6,320.2,434.6z"/>
		</g>
	</g>
</g>
</svg>
