<?xml version="1.0" encoding="utf-8"?>
<!-- Generator: Adobe Illustrator 17.1.0, SVG Export Plug-In . SVG Version: 6.00 Build 0)  -->
<!DOCTYPE svg PUBLIC "-//W3C//DTD SVG 1.1//EN" "http://www.w3.org/Graphics/SVG/1.1/DTD/svg11.dtd">
<svg version="1.1" id="Layer_1" xmlns="http://www.w3.org/2000/svg" xmlns:xlink="http://www.w3.org/1999/xlink" x="0px" y="0px"
	 viewBox="0 0 31 51.2" enable-background="new 0 0 31 51.2" xml:space="preserve">
<g opacity="0.95">
	<g>
		<polygon fill="#8CC864" points="22.8,51.2 15.5,41.6 8.1,51.2 8.1,25.6 22.8,25.6 		"/>
		<path fill="#8CC864" d="M29,15.5c3-2.3,2.5-4.4-1.1-5.3c1.9-3.1,0.7-4.9-2.9-4.3c0.6-3.6-1.1-4.8-4.3-2.9c-0.8-3.6-3-4.1-5.3-1.1
			C13.2-1,11-0.6,10.2,3C7.1,1.1,5.3,2.3,5.9,5.9C2.3,5.3,1.1,7.1,3,10.2C-0.6,11-1,13.2,2,15.5c-3,2.3-2.5,4.4,1.1,5.3
			c-1.9,3.1-0.7,4.9,2.9,4.3c-0.6,3.6,1.1,4.8,4.3,2.9c0.8,3.6,3,4.1,5.3,1.1c2.3,3,4.4,2.5,5.3-1.1c3.1,1.9,4.9,0.7,4.3-2.9
			c3.6,0.6,4.8-1.1,2.9-4.3C31.5,19.9,32,17.8,29,15.5z M24.3,19.2c-0.5,1.1-1.2,2.2-2.1,3s-1.9,1.6-3,2.1c-1.1,0.5-2.4,0.8-3.7,0.8
			s-2.6-0.3-3.7-0.8c-1.1-0.5-2.2-1.2-3-2.1s-1.6-1.9-2.1-3c-0.5-1.1-0.8-2.4-0.8-3.7c0-1.3,0.3-2.6,0.8-3.7c0.5-1.1,1.2-2.2,2.1-3
			s1.9-1.6,3-2.1c1.1-0.5,2.4-0.8,3.7-0.8s2.6,0.3,3.7,0.8c1.1,0.5,2.2,1.2,3,2.1s1.6,1.9,2.1,3c0.5,1.1,0.8,2.4,0.8,3.7
			C25.1,16.8,24.8,18.1,24.3,19.2z"/>
	</g>
	<path fill="#8CC864" d="M18.7,16.1l1.9,6l-5.1-3.7l-5.1,3.7l2-6l-5.2-3.7h6.4l2-5.4h0l2,5.4h6.3L18.7,16.1z"/>
</g>
</svg>
