<?xml version="1.0" encoding="utf-8"?>
<!-- Generator: Adobe Illustrator 17.1.0, SVG Export Plug-In . SVG Version: 6.00 Build 0)  -->
<!DOCTYPE svg PUBLIC "-//W3C//DTD SVG 1.1//EN" "http://www.w3.org/Graphics/SVG/1.1/DTD/svg11.dtd">
<svg version="1.1" id="Layer_1" xmlns="http://www.w3.org/2000/svg" xmlns:xlink="http://www.w3.org/1999/xlink" x="0px" y="0px"
	 viewBox="0 0 1224 792" enable-background="new 0 0 1224 792" xml:space="preserve">
<path fill="#FFFFFF" d="M1029.8,477.2c0-15.8-5.9-31.7-9.9-45.5c-2-17.8-4-37.6-7.9-55.4c-4-21.8-13.9-43.6-13.9-67.3
	c0-5.9,0-9.9-2-13.9c2-19.8,2-43.6-17.8-59.4c-29.7-21.8-108.9-23.8-97,2c7.9,21.8,7.9,41.6,43.6,43.6c-2,9.9-2,17.8,0,21.8
	c4,7.9,7.9,4,35.6-4l2,11.9c2,15.8,4,31.7,4,47.5c-2,39.6-5.9,79.2-9.9,118.8c0,4-4,11.9-7.9,11.9c-15.8,0-33.7,0-49.5-4
	c-23.8-5.9-47.5-9.9-71.3-5.9c-7.9,2-15.8,2-23.8,0c-29.7-13.9-47.5-19.8-79.2-17.8c-33.7,2-87.1-35.6-87.1-41.6
	c0-17.8,2-17.8,19.8-15.8c11.9,2,23.8,4,35.6,5.9c11.9,4,17.8,0,19.8-13.9c0-2,0-5.9,2-7.9c5.9-9.9,11.9-19.8,17.8-29.7
	c2-4,5.9-7.9,9.9-7.9c15.8,0,11.9-9.9,7.9-17.8c-7.9-11.9-11.9-25.7-7.9-41.6c0-2,0-7.9-2-11.9c7.9-7.9,17.8-17.8,21.8-33.7
	c4-17.8-17.8-81.2-83.2-83.2l0,0l0,0c-41.6-9.9-87.1-4-118.8,29.7c-4,4-9.9,5.9-15.8,5.9c-13.9,4-29.7,2-41.6,7.9
	c-19.8,9.9-29.7,27.7-35.6,49.5c-7.9,27.7-15.8,53.5-21.8,81.2c-2,7.9-2,15.8-2,23.8c0,13.9,0,29.7-2,43.6c0,2-2,4-4,5.9
	c-15.8,5.9-41.6,7.9-61.4-15.8c0,0-5.9,9.9,13.9,35.6c-7.9,4-15.8,13.9-23.8,29.7c-5.9,4-9.9,7.9-15.8,11.9
	c-17.8,11.9-35.6,21.8-53.5,31.7c-9.9,5.9-19.8,9.9-33.7,17.8c-7.9-35.6-13.9-67.3-19.8-101c0-2,2-5.9,2-7.9c2-5.9,4-27.7,4-43.6
	c4-2,7.9-2,11.9-2c35.6,0,31.7-21.8,27.7-43.6c-2-27.7-53.5-21.8-81.2-2c-27.7,19.8-17.8,53.5-17.8,77.2c0,2,0,2,0,2c0,2,0,4,0,4
	c0,5.9,2,11.9,2,19.8c0,23.8,2,45.5,2,69.3c0,11.9,0,23.8,0,35.6c2,15.8,2,31.7,5.9,45.5c5.9,19.8,15.8,25.7,35.6,25.7
	c4,0,9.9,2,13.9,2c49.5,0,97-9.9,138.6-37.6c7.9-5.9,15.8-13.9,27.7-23.8c-2,21.8,27.7,91.1,31.7,91.1h275.2
	c11.9-19.8,21.8-63.4,45.5-57.4c83.2,21.8,150.5,7.9,231.7-19.8c11.9-4,19.8-9.9,21.8-21.8C1029.8,514.8,1031.8,495,1029.8,477.2z
	 M511,409.9c-2-37.6,35.6-73.3,19.8-110.9c15.8,2,21.8,11.9,23.8,25.7C564.5,352.4,576.4,386.1,511,409.9z"/>
</svg>
