<?xml version="1.0" encoding="utf-8"?>
<!-- Generator: Adobe Illustrator 17.1.0, SVG Export Plug-In . SVG Version: 6.00 Build 0)  -->
<!DOCTYPE svg PUBLIC "-//W3C//DTD SVG 1.1//EN" "http://www.w3.org/Graphics/SVG/1.1/DTD/svg11.dtd">
<svg version="1.1" id="Layer_1" xmlns="http://www.w3.org/2000/svg" xmlns:xlink="http://www.w3.org/1999/xlink" x="0px" y="0px"
	 viewBox="0 0 21.3 23.3" enable-background="new 0 0 21.3 23.3" xml:space="preserve">
<path d="M11.3,11.7L18,5c0.2-0.2,0.2-0.5,0-0.7s-0.5-0.2-0.7,0l-6.6,6.6L4,4.3c-0.2-0.2-0.5-0.2-0.7,0S3.1,4.8,3.3,5l6.6,6.6
	l-6.6,6.6c-0.2,0.2-0.2,0.5,0,0.7c0.1,0.1,0.2,0.1,0.4,0.1s0.3,0,0.4-0.1l6.6-6.6l6.6,6.6c0.1,0.1,0.2,0.1,0.4,0.1s0.3,0,0.4-0.1
	c0.2-0.2,0.2-0.5,0-0.7L11.3,11.7z"/>
</svg>
