<?xml version="1.0" encoding="utf-8"?>
<!-- Generator: Adobe Illustrator 17.1.0, SVG Export Plug-In . SVG Version: 6.00 Build 0)  -->
<!DOCTYPE svg PUBLIC "-//W3C//DTD SVG 1.1//EN" "http://www.w3.org/Graphics/SVG/1.1/DTD/svg11.dtd">
<svg version="1.1" id="Layer_1" xmlns="http://www.w3.org/2000/svg" xmlns:xlink="http://www.w3.org/1999/xlink" x="0px" y="0px"
	 viewBox="0 0 33 36" enable-background="new 0 0 33 36" xml:space="preserve">
<path opacity="0.95" fill="#8CC864" d="M0,9V4.5c0-0.4,0.1-0.8,0.4-1.1C0.7,3.1,1.1,3,1.5,3H6V0h3v3h15V0h3v3h4.5
	c0.4,0,0.8,0.1,1.1,0.4C32.9,3.7,33,4.1,33,4.5V9H0z M33,12v22.5c0,0.4-0.1,0.8-0.4,1c-0.3,0.3-0.6,0.5-1.1,0.5h-30
	c-0.4,0-0.8-0.2-1.1-0.5c-0.3-0.3-0.4-0.6-0.4-1V12H33z M3,21h3v-3H3V21z M3,27h3v-3H3V27z M3,33h3v-3H3V33z M9,21h3v-3H9V21z M9,27
	h3v-3H9V27z M9,33h3v-3H9V33z M15,21h3v-3h-3V21z M15,27h3v-3h-3V27z M15,33h3v-3h-3V33z M21,21h3v-3h-3V21z M21,27h3v-3h-3V27z
	 M21,33h3v-3h-3V33z M27,21h3v-3h-3V21z M27,27h3v-3h-3V27z M27,33h3v-3h-3V33z"/>
</svg>
