<?xml version="1.0" encoding="utf-8"?>
<!-- Generator: Adobe Illustrator 17.1.0, SVG Export Plug-In . SVG Version: 6.00 Build 0)  -->
<!DOCTYPE svg PUBLIC "-//W3C//DTD SVG 1.1//EN" "http://www.w3.org/Graphics/SVG/1.1/DTD/svg11.dtd">
<svg version="1.1" id="Layer_1" xmlns="http://www.w3.org/2000/svg" xmlns:xlink="http://www.w3.org/1999/xlink" x="0px" y="0px"
	 viewBox="299 373.3 31 42" enable-background="new 299 373.3 31 42" xml:space="preserve">
<g>
	<g>
		<g>
			<path d="M299.5,415.3c-0.3,0-0.6-0.3-0.6-0.6v-40.9c0-0.3,0.3-0.6,0.6-0.6s0.6,0.3,0.6,0.6v40.9
				C300.1,415.1,299.8,415.3,299.5,415.3z"/>
		</g>
	</g>
	<g>
		<g>
			<path d="M303.4,398.2c-0.1,0-0.2,0-0.3-0.1c-0.2-0.1-0.3-0.3-0.3-0.5v-21.6c0-0.2,0.1-0.4,0.3-0.5c0.1-0.1,0.4-0.1,0.5,0l26,10.8
				c0.2,0.1,0.4,0.3,0.4,0.5c0,0.2-0.2,0.4-0.4,0.5l-26,10.8C303.6,398.2,303.5,398.2,303.4,398.2z M304,376.9v19.8l24-9.9
				L304,376.9z"/>
		</g>
	</g>
</g>
</svg>
