<?xml version="1.0" encoding="utf-8"?>
<!-- Generator: Adobe Illustrator 17.1.0, SVG Export Plug-In . SVG Version: 6.00 Build 0)  -->
<!DOCTYPE svg PUBLIC "-//W3C//DTD SVG 1.1//EN" "http://www.w3.org/Graphics/SVG/1.1/DTD/svg11.dtd">
<svg version="1.1" id="Layer_1" xmlns="http://www.w3.org/2000/svg" xmlns:xlink="http://www.w3.org/1999/xlink" x="0px" y="0px"
	 viewBox="0 0 35.8 35.8" enable-background="new 0 0 35.8 35.8" xml:space="preserve">
<g>
	<g>
		<path fill="#FFFFFF" d="M8.9,2.4c2.7-1.6,5.7-2.4,9-2.4c3.2,0,6.2,0.8,9,2.4s4.9,3.8,6.5,6.5c1.6,2.8,2.4,5.7,2.4,9
			s-0.8,6.2-2.4,9c-1.6,2.8-3.8,4.9-6.5,6.5c-2.8,1.6-5.7,2.4-9,2.4c-3.2,0-6.2-0.8-9-2.4c-2.8-1.6-4.9-3.8-6.5-6.5
			c-1.6-2.7-2.4-5.7-2.4-9s0.8-6.2,2.4-9C4,6.2,6.2,4,8.9,2.4z"/>
	</g>
	<path fill="#8CC864" d="M5.7,19.8l4.2-4.2l4.1,4.1l12-12l4.2,4.2L14,28.1L5.7,19.8z"/>
</g>
</svg>
