<?xml version="1.0" encoding="utf-8"?>
<!-- Generator: Adobe Illustrator 17.1.0, SVG Export Plug-In . SVG Version: 6.00 Build 0)  -->
<!DOCTYPE svg PUBLIC "-//W3C//DTD SVG 1.1//EN" "http://www.w3.org/Graphics/SVG/1.1/DTD/svg11.dtd">
<svg version="1.1" id="Layer_1" xmlns="http://www.w3.org/2000/svg" xmlns:xlink="http://www.w3.org/1999/xlink" x="0px" y="0px"
	 viewBox="0 0 612 792" enable-background="new 0 0 612 792" xml:space="preserve">
<circle fill="#FFFFFF" stroke="#000000" stroke-miterlimit="10" cx="306.1" cy="396" r="173.1"/>
<g>
	<g>
		<g>
			<g>
				<g>
					<g>
						<path fill="#F06B33" d="M191.5,198.9c34.3-20.4,72.5-30.5,114.5-30.5c40.7,0,78.8,10.2,114.5,30.5s62.3,48.3,82.7,82.7
							c20.4,35.6,30.5,72.5,30.5,114.5s-10.2,78.8-30.5,114.5c-20.4,35.6-48.3,62.3-82.7,82.7c-35.6,20.4-72.5,30.5-114.5,30.5
							c-40.7,0-78.8-10.2-114.5-30.5c-35.6-20.4-62.3-48.3-82.7-82.7S78.4,438,78.4,396s10.2-78.8,30.5-114.5
							C129.2,247.2,157.2,219.2,191.5,198.9z M267.8,281.5v76.3h-76.3v76.3h76.3v76.3h76.3v-76.3h76.3v-76.3h-76.3v-76.3H267.8z"/>
					</g>
				</g>
			</g>
		</g>
	</g>
</g>
</svg>
