<?xml version="1.0" encoding="utf-8"?>
<!-- Generator: Adobe Illustrator 17.1.0, SVG Export Plug-In . SVG Version: 6.00 Build 0)  -->
<!DOCTYPE svg PUBLIC "-//W3C//DTD SVG 1.1//EN" "http://www.w3.org/Graphics/SVG/1.1/DTD/svg11.dtd">
<svg version="1.1" id="Layer_1" xmlns="http://www.w3.org/2000/svg" xmlns:xlink="http://www.w3.org/1999/xlink" x="0px" y="0px"
	 viewBox="0 0 35.8 35.8" enable-background="new 0 0 35.8 35.8" xml:space="preserve">
<rect x="6.4" y="4.9" fill="#FFFFFF" width="24.5" height="24.5"/>
<path fill="#8CC864" d="M8.9,2.4c2.7-1.6,5.7-2.4,9-2.4c3.2,0,6.2,0.8,9,2.4s4.9,3.8,6.5,6.5c1.6,2.8,2.4,5.7,2.4,9s-0.8,6.2-2.4,9
	c-1.6,2.8-3.8,4.9-6.5,6.5c-2.8,1.6-5.7,2.4-9,2.4c-3.2,0-6.2-0.8-9-2.4c-2.8-1.6-4.9-3.8-6.5-6.5c-1.6-2.7-2.4-5.7-2.4-9
	s0.8-6.2,2.4-9C4,6.2,6.2,4,8.9,2.4z M14.9,8.9v6h-6v6h6v6h6v-6h6v-6h-6v-6H14.9z"/>
</svg>
