<?xml version="1.0" encoding="utf-8"?>
<!-- Generator: Adobe Illustrator 17.1.0, SVG Export Plug-In . SVG Version: 6.00 Build 0)  -->
<!DOCTYPE svg PUBLIC "-//W3C//DTD SVG 1.1//EN" "http://www.w3.org/Graphics/SVG/1.1/DTD/svg11.dtd">
<svg version="1.1" id="Layer_1" xmlns="http://www.w3.org/2000/svg" xmlns:xlink="http://www.w3.org/1999/xlink" x="0px" y="0px"
	 viewBox="0 0 612 792" enable-background="new 0 0 612 792" xml:space="preserve">
<circle fill="#FFFFFF" stroke="#000000" stroke-miterlimit="10" cx="306.1" cy="396" r="173.1"/>
<path fill="#8DC63F" d="M503.1,281.5c-20.4-34.3-47-62.4-82.7-82.7c-35.6-20.3-73.8-30.5-114.5-30.5c-42,0-80.1,10.1-114.5,30.5
	c-34.3,20.4-62.3,48.3-82.7,82.7C88.6,317.2,78.4,354,78.4,396s10.1,80.1,30.5,114.5c20.4,34.3,47,62.3,82.7,82.7
	c35.6,20.3,73.8,30.5,114.5,30.5c42,0,78.8-10.1,114.5-30.5c34.3-20.4,62.3-47,82.7-82.7c20.3-35.6,30.5-72.5,30.5-114.5
	C533.6,354,523.5,317.2,503.1,281.5z M264,504.1l-87.7-87.7l44.5-44.5l43.2,43.2l127.2-127.2l44.5,44.5L264,504.1z"/>
</svg>
