<?xml version="1.0" encoding="utf-8"?>
<!-- Generator: Adobe Illustrator 17.1.0, SVG Export Plug-In . SVG Version: 6.00 Build 0)  -->
<!DOCTYPE svg PUBLIC "-//W3C//DTD SVG 1.1//EN" "http://www.w3.org/Graphics/SVG/1.1/DTD/svg11.dtd">
<svg version="1.1" id="Layer_1" xmlns="http://www.w3.org/2000/svg" xmlns:xlink="http://www.w3.org/1999/xlink" x="0px" y="0px"
	 viewBox="290.5 384.1 31 22.8" enable-background="new 290.5 384.1 31 22.8" xml:space="preserve">
<g>
	<path d="M321.5,406.9h-31v-17h10v-5.8h11.1v8.6h10V406.9z M291.5,405.9h29v-12.2h-10v-8.6h-9.1v5.8h-10V405.9z"/>
</g>
<g>
	<polygon points="298.7,399.3 295.2,399.3 295.2,400.5 298.7,400.5 298.7,402.4 293.4,402.4 293.4,397.3 296.8,397.3 296.8,396.1 
		293.4,396.1 293.4,394.2 298.7,394.2 298.7,399.3 	"/>
</g>
<g>
	<polygon points="307.3,395.2 305.4,395.2 305.4,388.9 303.9,388.9 303.9,387.1 307.3,387.1 307.3,395.2 	"/>
</g>
<g>
	<polygon points="319.1,404 313.8,404 313.8,402.1 317.3,402.1 317.3,400.9 313.8,400.9 313.8,399 317.3,399 317.3,397.8 
		313.8,397.8 313.8,395.9 319.1,395.9 	"/>
</g>
</svg>
