<?xml version="1.0" encoding="utf-8"?>
<!-- Generator: Adobe Illustrator 17.1.0, SVG Export Plug-In . SVG Version: 6.00 Build 0)  -->
<!DOCTYPE svg PUBLIC "-//W3C//DTD SVG 1.1//EN" "http://www.w3.org/Graphics/SVG/1.1/DTD/svg11.dtd">
<svg version="1.1" id="Layer_1" xmlns="http://www.w3.org/2000/svg" xmlns:xlink="http://www.w3.org/1999/xlink" x="0px" y="0px"
	 viewBox="594.1 775.6 31 20.6" enable-background="new 594.1 775.6 31 20.6" xml:space="preserve">
<g>
	<g>
		<g>
			<path d="M624.6,776.6C624.6,776.6,624.6,776.6,624.6,776.6h-30c-0.3,0-0.5-0.2-0.5-0.5s0.2-0.5,0.5-0.5h29.9c0,0,0.1,0,0.1,0h0
				c0.3,0,0.5,0.2,0.5,0.5S624.9,776.6,624.6,776.6z"/>
		</g>
	</g>
	<g>
		<g>
			<path d="M624.6,786.4C624.6,786.4,624.6,786.4,624.6,786.4h-30c-0.3,0-0.5-0.2-0.5-0.5s0.2-0.5,0.5-0.5h29.9c0,0,0.1,0,0.1,0h0
				c0.3,0,0.5,0.2,0.5,0.5S624.9,786.4,624.6,786.4z"/>
		</g>
	</g>
	<g>
		<g>
			<path d="M624.6,796.2C624.6,796.2,624.6,796.2,624.6,796.2h-30c-0.3,0-0.5-0.2-0.5-0.5s0.2-0.5,0.5-0.5h29.9c0,0,0.1,0,0.1,0h0
				c0.3,0,0.5,0.2,0.5,0.5S624.9,796.2,624.6,796.2z"/>
		</g>
	</g>
</g>
</svg>
