<?xml version="1.0" encoding="utf-8"?>
<!-- Generator: Adobe Illustrator 17.1.0, SVG Export Plug-In . SVG Version: 6.00 Build 0)  -->
<!DOCTYPE svg PUBLIC "-//W3C//DTD SVG 1.1//EN" "http://www.w3.org/Graphics/SVG/1.1/DTD/svg11.dtd">
<svg version="1.1" id="Layer_1" xmlns="http://www.w3.org/2000/svg" xmlns:xlink="http://www.w3.org/1999/xlink" x="0px" y="0px"
	 viewBox="0 0 118.3 203.4" enable-background="new 0 0 118.3 203.4" xml:space="preserve">
<g>
	<g>
		<g>
			<path fill="#010101" d="M39.7,106.2l0.3-0.9C22,97.8,9.2,79.9,9.2,59.1c0-27.5,22.4-49.9,49.9-49.9c27.5,0,49.9,22.4,49.9,49.9
				c0,20.8-12.8,38.6-30.9,46.1l0.3,0.9c18.5-7.6,31.5-25.9,31.5-47.1c0-28.1-22.8-50.9-50.9-50.9C31.1,8.2,8.2,31.1,8.2,59.1
				C8.2,80.4,21.3,98.6,39.7,106.2z"/>
			<path fill="#010101" d="M42.4,98.7l0.3-0.9c-15-6.4-25.5-21.3-25.5-38.6C17.2,36,36,17.2,59.1,17.2c23.1,0,41.9,18.8,41.9,41.9
				c0,17.3-10.5,32.2-25.5,38.6l0.3,0.9c15.4-6.5,26.2-21.8,26.2-39.5c0-23.7-19.3-42.9-42.9-42.9S16.2,35.5,16.2,59.1
				C16.2,76.9,27,92.1,42.4,98.7z"/>
			<path fill="#010101" d="M37,114l0.3-0.9C16.1,104.4,1,83.5,1,59.1C1,27.1,27.1,1,59.1,1s58.1,26.1,58.1,58.1
				c0,24.3-15.1,45.2-36.3,53.9l0.3,0.9c21.7-8.8,37-30,37-54.8C118.3,26.5,91.8,0,59.1,0C26.5,0,0,26.5,0,59.1
				C0,83.9,15.3,105.2,37,114z"/>
		</g>
		<g>
			<path fill="#010101" d="M109.1,203C109.1,203,109.1,203,109.1,203c0-0.1,0-0.2,0-0.2c0,0,0-0.1,0-0.1c0,0,0,0,0,0l-23.8-67.1
				c0-0.2,0-0.3-0.1-0.4L60.9,66.8c3.7-0.8,6.4-4.1,6.4-8c0-4.5-3.7-8.2-8.2-8.2S51,54.3,51,58.8c0,3.8,2.7,7.2,6.4,8l-24.3,68.4
				c-0.1,0.1-0.2,0.3-0.1,0.4L9.2,202.7c0,0,0,0,0,0c0,0,0,0.1,0,0.1c0,0,0,0.1,0,0.1c0,0,0,0.1,0,0.1c0,0,0,0.1,0,0.1
				c0,0,0,0,0.1,0.1c0,0,0,0.1,0.1,0.1c0,0,0,0,0,0c0,0,0,0,0.1,0c0,0,0,0,0.1,0c0,0,0,0,0,0c0,0,0.1,0,0.1,0c0,0,0.1,0,0.1,0
				c0,0,0.1,0,0.1,0c0,0,0,0,0.1,0c0,0,0.1,0,0.1-0.1c0,0,0,0,0.1-0.1c0,0,0,0,0,0l35.2-47.3l13.5,22.2c0.1,0.1,0.3,0.2,0.4,0.2
				s0.3-0.1,0.4-0.2L73,155.9l35.2,47.3c0,0,0.1,0,0.1,0.1c0,0,0,0,0.1,0.1c0.1,0,0.2,0.1,0.3,0.1c0.1,0,0.1,0,0.2,0
				c0,0,0.1,0,0.1-0.1c0,0,0,0,0,0c0,0,0,0,0,0c0,0,0,0,0.1-0.1C109,203.2,109,203.1,109.1,203C109.1,203.1,109.1,203.1,109.1,203z
				 M58.5,66.1c-0.1-0.1-0.2-0.2-0.4-0.2c-3.5-0.5-6.2-3.5-6.2-7.1c0-4,3.2-7.2,7.2-7.2c4,0,7.2,3.2,7.2,7.2c0,3.6-2.7,6.6-6.2,7.1
				c-0.1,0-0.3,0.1-0.4,0.2s-0.1,0.3,0,0.4l24.5,69l-11.3,18.6l-13.4-18c-0.2-0.3-0.6-0.3-0.8,0l-13.4,18l-11.3-18.6l24.5-69
				C58.6,66.4,58.6,66.3,58.5,66.1z M11.3,199.9l22.4-63.1l11,18.2L11.3,199.9z M59.1,176.9L45.9,155l13.2-17.8L72.4,155L59.1,176.9
				z M84.6,136.8l22.4,63.1L73.6,155L84.6,136.8z"/>
		</g>
	</g>
</g>
</svg>
