<?xml version="1.0" encoding="utf-8"?>
<!-- Generator: Adobe Illustrator 17.1.0, SVG Export Plug-In . SVG Version: 6.00 Build 0)  -->
<!DOCTYPE svg PUBLIC "-//W3C//DTD SVG 1.1//EN" "http://www.w3.org/Graphics/SVG/1.1/DTD/svg11.dtd">
<svg version="1.1" id="Layer_1" xmlns="http://www.w3.org/2000/svg" xmlns:xlink="http://www.w3.org/1999/xlink" x="0px" y="0px"
	 viewBox="11.8 11.9 16 16.2" enable-background="new 11.8 11.9 16 16.2" xml:space="preserve">
<g>
	<path fill="#404041" d="M20,17.8c-1.1,0-2.2,1.1-2.2,2.2c0,1.1,0.8,2.2,2.2,2.2c1.2,0,2.2-1,2.2-2.2C22.2,19,21.3,17.8,20,17.8z
		 M20,21.4c-0.9,0-1.4-0.7-1.4-1.4c0-0.7,0.7-1.4,1.4-1.4c0.9,0,1.4,0.7,1.4,1.4C21.4,20.7,20.8,21.4,20,21.4z"/>
	<path fill="#404041" d="M25.8,22.2l2.1-0.5v-3.4l-2.2-0.4c-0.1-0.2-0.1-0.3-0.2-0.5l1.2-1.9l-2.4-2.4l-1.9,1.3
		c-0.1,0-0.1-0.1-0.2-0.1c-0.1,0-0.2-0.1-0.3-0.1l-0.4-2.2h-3.4l-0.3,2.3c-0.2,0.1-0.3,0.1-0.5,0.2l-1.9-1.2L13,15.7l1.3,1.9
		c0,0.1-0.1,0.1-0.1,0.2c0,0.1-0.1,0.2-0.1,0.3l-2.2,0.4v3.4l2.2,0.4c0.1,0.2,0.1,0.3,0.2,0.5L13,24.5l2.4,2.4l1.9-1.3
		c0.1,0,0.1,0.1,0.2,0.1c0.1,0,0.2,0.1,0.3,0.1l0.4,2.2h3.4L22,26c0.2-0.1,0.3-0.1,0.5-0.2l1.9,1.2l2.4-2.4l-1.3-1.9
		c0-0.1,0.1-0.1,0.1-0.2C25.7,22.4,25.7,22.3,25.8,22.2z M25.8,24.5L24.3,26l-1.8-1.2L22.3,25c-0.3,0.2-0.4,0.3-0.7,0.4l-0.2,0.1
		l-0.4,2h-2.2l-0.4-2l-0.2-0.1c-0.1,0-0.2-0.1-0.3-0.2c-0.1-0.1-0.3-0.2-0.5-0.2l-0.2-0.1L15.5,26L14,24.5l1.2-1.8L15,22.5
		c-0.2-0.3-0.3-0.4-0.4-0.7l-0.1-0.2l-2-0.4V19l2-0.4l0.1-0.2c0-0.1,0.1-0.2,0.2-0.3c0.1-0.1,0.2-0.3,0.2-0.5l0.1-0.2L14,15.7
		l1.6-1.6l1.8,1.2l0.2-0.1c0.3-0.2,0.4-0.3,0.7-0.4l0.2-0.1l0.3-2.1h2.2l0.4,2l0.2,0.1c0.1,0,0.2,0.1,0.3,0.2
		c0.1,0.1,0.3,0.2,0.5,0.2l0.2,0.1l1.7-1.1l1.6,1.6l-1.2,1.8l0.1,0.2c0.2,0.3,0.3,0.4,0.4,0.7l0.1,0.2l2,0.4v2.2l-1.9,0.5l-0.1,0.2
		c0,0.1-0.1,0.2-0.2,0.3c-0.1,0.1-0.2,0.3-0.2,0.5l-0.1,0.2L25.8,24.5z"/>
</g>
</svg>
