<?xml version="1.0" encoding="utf-8"?>
<!-- Generator: Adobe Illustrator 17.1.0, SVG Export Plug-In . SVG Version: 6.00 Build 0)  -->
<!DOCTYPE svg PUBLIC "-//W3C//DTD SVG 1.1//EN" "http://www.w3.org/Graphics/SVG/1.1/DTD/svg11.dtd">
<svg version="1.1" id="Layer_1" xmlns="http://www.w3.org/2000/svg" xmlns:xlink="http://www.w3.org/1999/xlink" x="0px" y="0px"
	 viewBox="0 0 40 40" enable-background="new 0 0 40 40" xml:space="preserve">
<g>
	<path fill="none" stroke="#404041" stroke-miterlimit="10" d="M95.4,569.4v-2.9l-2.2-0.4c-0.1-0.3-0.2-0.5-0.3-0.8l1.3-1.9
		l-2.1-2.1l-1.8,1.3c-0.3-0.1-0.5-0.2-0.8-0.3l-0.4-2.2h-2.9l-0.4,2.2c-0.3,0.1-0.5,0.2-0.8,0.3l-1.8-1.3l-2.1,2.1l1.3,1.9
		c-0.1,0.3-0.2,0.5-0.3,0.8l-2.2,0.4v2.9l2.3,0.4c0.1,0.3,0.2,0.5,0.3,0.8l-1.3,1.9l2.1,2.1l1.9-1.3c0.3,0.1,0.5,0.2,0.8,0.3
		l0.4,2.3h2.9l0.4-2.3c0.3-0.1,0.5-0.2,0.8-0.3l1.9,1.3l2.1-2.1l-1.3-1.9c0.1-0.3,0.2-0.5,0.3-0.8L95.4,569.4L95.4,569.4z
		 M87.6,569.9c-1.1,0-2-0.9-2-2s0.9-2,2-2s2,0.9,2,2S88.7,569.9,87.6,569.9z"/>
</g>
<g>
	<path fill="none" stroke="#404041" stroke-miterlimit="10" d="M27.5,21.4v-2.8l-2.1-0.4c-0.1-0.3-0.2-0.5-0.4-0.8l1.2-1.8l-2-2
		l-1.8,1.2c-0.3-0.1-0.5-0.3-0.8-0.4l-0.4-2.1h-2.8l-0.3,2.2c-0.3,0.1-0.5,0.2-0.8,0.4l-1.8-1.2l-2,2l1.2,1.8
		c-0.1,0.3-0.3,0.5-0.4,0.8l-2.1,0.4v2.8l2.1,0.4c0.1,0.3,0.2,0.5,0.4,0.8l-1.2,1.8l2,2l1.8-1.2c0.3,0.1,0.5,0.3,0.8,0.4l0.4,2.1
		h2.8l0.4-2.1c0.3-0.1,0.5-0.2,0.8-0.4l1.8,1.2l2-2l-1.2-1.8c0.1-0.3,0.3-0.5,0.4-0.8L27.5,21.4L27.5,21.4z M20,21.8
		c-1.1,0-1.8-0.9-1.8-1.8s0.9-1.8,1.8-1.8c1.1,0,1.8,0.9,1.8,1.8S21,21.8,20,21.8z"/>
</g>
</svg>
