<?xml version="1.0" encoding="utf-8"?>
<!-- Generator: Adobe Illustrator 17.1.0, SVG Export Plug-In . SVG Version: 6.00 Build 0)  -->
<!DOCTYPE svg PUBLIC "-//W3C//DTD SVG 1.1//EN" "http://www.w3.org/Graphics/SVG/1.1/DTD/svg11.dtd">
<svg version="1.1" id="Layer_1" xmlns="http://www.w3.org/2000/svg" xmlns:xlink="http://www.w3.org/1999/xlink" x="0px" y="0px"
	 viewBox="291 384.2 31 23.5" enable-background="new 291 384.2 31 23.5" xml:space="preserve">
<g>
	<g opacity="0.8">
		<g>
			<g>
				<g>
					<path d="M293.3,404.9c-0.1,0-0.1,0-0.2,0c-0.2-0.1-0.3-0.3-0.3-0.5v-5.8c-1.1-0.4-1.8-1.5-1.8-2.7v-8.8c0-1.6,1.3-2.9,2.9-2.9
						h17.5c1.6,0,2.9,1.3,2.9,2.9v8.7c0,1.6-1.3,2.9-2.9,2.9h-11.8l-6,6C293.5,404.9,293.4,404.9,293.3,404.9z M293.8,385.3
						c-1,0-1.8,0.8-1.8,1.8v8.8c0,0.8,0.6,1.5,1.3,1.7c0.2,0.1,0.4,0.3,0.4,0.5v4.9l5.2-5.3c0.1-0.1,0.3-0.2,0.4-0.2h12
						c1,0,1.8-0.8,1.8-1.8v-8.7c0-1-0.8-1.8-1.8-1.8H293.8z"/>
				</g>
			</g>
		</g>
		<g>
			<g>
				<g>
					<path d="M319.7,407.8c-0.1,0-0.3-0.1-0.4-0.2l-4.2-4.2h-12.3c-0.9,0-1.6-0.7-1.6-1.6V400c0-0.3,0.3-0.5,0.5-0.5h11.5
						c1,0,1.8-0.8,1.8-1.8V392c0-0.3,0.3-0.5,0.5-0.5h4.8c0.8,0,1.5,0.7,1.6,1.6l0,8.8c0,0.9-0.7,1.6-1.6,1.6h-0.1v3.8
						c0,0.2-0.1,0.4-0.3,0.5C319.8,407.8,319.7,407.8,319.7,407.8z M302.3,400.6v1.2c0,0.3,0.3,0.5,0.5,0.5h12.5
						c0.1,0,0.3,0.1,0.4,0.1l3.5,3.5v-3.1c0-0.3,0.3-0.5,0.5-0.5h0.7c0.3,0,0.5-0.3,0.5-0.5v-8.7c-0.1-0.4-0.4-0.5-0.5-0.5h-4.2v5.2
						c0,1.6-1.3,2.9-2.9,2.9H302.3z"/>
				</g>
			</g>
		</g>
		<g>
			<g>
				<g>
					<path d="M300,392.3c-0.5,0-1-0.4-1-1c0-0.5,0.4-1,1-1c0.5,0,1,0.4,1,1C301,391.8,300.6,392.3,300,392.3z"/>
				</g>
			</g>
			<g>
				<g>
					<path d="M302.8,392.3c-0.5,0-1-0.4-1-1c0-0.5,0.4-1,1-1c0.5,0,1,0.4,1,1C303.8,391.8,303.3,392.3,302.8,392.3z"/>
				</g>
			</g>
			<g>
				<g>
					<path d="M305.6,392.3c-0.5,0-1-0.4-1-1c0-0.5,0.4-1,1-1c0.5,0,1,0.4,1,1C306.5,391.8,306.1,392.3,305.6,392.3z"/>
				</g>
			</g>
		</g>
	</g>
</g>
</svg>
