<?xml version="1.0" encoding="utf-8"?>
<!-- Generator: Adobe Illustrator 17.1.0, SVG Export Plug-In . SVG Version: 6.00 Build 0)  -->
<!DOCTYPE svg PUBLIC "-//W3C//DTD SVG 1.1//EN" "http://www.w3.org/Graphics/SVG/1.1/DTD/svg11.dtd">
<svg version="1.1" id="Layer_1" xmlns="http://www.w3.org/2000/svg" xmlns:xlink="http://www.w3.org/1999/xlink" x="0px" y="0px"
	 viewBox="0 0 1224 792" enable-background="new 0 0 1224 792" xml:space="preserve">
<g>
	<g opacity="0.8">
		<g>
			<path class="stream-icon" d="M301.1,594V447.5c-23.8-5.9-41.6-27.7-41.6-53.5V186.1c0-29.7,23.8-55.4,55.4-55.4h413.8
				c29.7,0,55.4,23.8,55.4,55.4V392c0,29.7-23.8,55.4-55.4,55.4H445.7L301.1,594z M319,388.1h41.6v61.4l61.4-61.4h301v-196H319
				V388.1z"/>
		</g>
		<g>
			<path  class="stream-icon" d="M940.7,301H827.8v134.6c0,29.7-23.8,55.4-55.4,55.4H501.1v41.6c0,13.9,11.9,25.7,25.7,25.7h295l103,103
				v-103h15.8c13.9,0,25.7-11.9,25.7-25.7V326.7C964.4,312.8,954.5,301,940.7,301z"/>
		</g>
		<g>
			<circle cx="461.5" cy="285.1" r="21.8"/>
			<circle cx="526.9" cy="285.1" r="21.8"/>
			<circle cx="592.2" cy="285.1" r="21.8"/>
		</g>
	</g>
</g>
</svg>
